<svg width="37" height="37" viewBox="0 0 37 37" fill="none" xmlns="http://www.w3.org/2000/svg">
<circle cx="18.5" cy="18.5" r="18.5" fill="#E0E0E0"/>
<path fill-rule="evenodd" clip-rule="evenodd" d="M23.4633 18.1294C23.4633 19.0588 23.709 19.6066 24.2496 20.2378C24.6592 20.7029 24.7901 21.2999 24.7901 21.9476C24.7901 22.5945 24.5776 23.2086 24.1517 23.7072C23.5943 24.3049 22.8081 24.6865 22.0057 24.7529C20.8429 24.852 19.6794 24.9355 18.5005 24.9355C17.3208 24.9355 16.158 24.8855 14.9953 24.7529C14.1922 24.6865 13.406 24.3049 12.8492 23.7072C12.4234 23.2086 12.2101 22.5945 12.2101 21.9476C12.2101 21.2999 12.3418 20.7029 12.7507 20.2378C13.3082 19.6066 13.5376 19.0588 13.5376 18.1294V17.8141C13.5376 16.5695 13.848 15.7556 14.4871 14.9589C15.4373 13.797 16.9604 13.1001 18.4674 13.1001H18.5336C20.0729 13.1001 21.6453 13.8305 22.5793 15.0423C23.1853 15.8227 23.4633 16.6023 23.4633 17.8141V18.1294ZM16.3346 26.4651C16.3346 26.0925 16.6766 25.9218 16.9929 25.8488C17.3628 25.7705 19.617 25.7705 19.9869 25.8488C20.3032 25.9218 20.6452 26.0925 20.6452 26.4651C20.6268 26.8199 20.4186 27.1344 20.1311 27.3341C19.7582 27.6248 19.3206 27.8089 18.8631 27.8752C18.6101 27.908 18.3616 27.9088 18.1174 27.8752C17.6592 27.8089 17.2216 27.6248 16.8495 27.3334C16.5612 27.1344 16.353 26.8199 16.3346 26.4651Z" fill="#272835"/>
<circle cx="31.25" cy="8.25" r="4.25" fill="#A14807"/>
</svg>
