<svg width="15" height="15" viewBox="0 0 15 15" fill="none" xmlns="http://www.w3.org/2000/svg">
<path d="M13.7713 10.8105C13.5982 11.1351 13.4035 11.4452 13.1835 11.7373C11.8888 13.4683 9.82243 14.5935 7.49638 14.5935C3.57996 14.5935 0.402832 11.4163 0.402832 7.49992C0.402832 3.5835 3.57996 0.406372 7.49638 0.406372C7.99044 0.406372 8.47368 0.45686 8.9425 0.55423M9.31395 0.64078C9.59884 0.716512 9.88013 0.810275 10.1506 0.918464L9.31395 0.64078ZM10.3922 1.01944C10.6555 1.13484 10.9079 1.26827 11.1495 1.41613L10.3922 1.01944ZM11.3767 1.56038C11.6075 1.71185 11.8311 1.87773 12.0403 2.05444L11.3767 1.56038ZM12.3937 2.37179C12.657 2.62423 12.9022 2.8947 13.1258 3.18681L12.3937 2.37179ZM13.3926 3.55465C13.5766 3.82873 13.7425 4.11363 13.8867 4.41295L13.3926 3.55465ZM14.0742 4.83488C14.2005 5.14502 14.305 5.46598 14.3844 5.79415L14.0742 4.83488ZM14.4529 6.10429C14.5431 6.55508 14.5899 7.02389 14.5899 7.49992L14.4529 6.10429ZM14.5827 7.84613C14.5683 8.1743 14.5286 8.49886 14.4673 8.81621L14.5827 7.84613ZM14.4024 9.12996C14.305 9.54829 14.168 9.95219 14.0021 10.3345L14.4024 9.12996Z" stroke="white" stroke-width="0.699954"/>
<path fill-rule="evenodd" clip-rule="evenodd" d="M7.13588 3.02824C5.04063 3.28428 3.39256 5.28577 4.30495 7.66591C4.68001 8.64682 6.42184 10.843 7.16112 11.7302C7.36668 11.9754 7.50011 12.1377 7.75616 11.8203C7.8932 11.6472 8.01221 11.4814 8.16728 11.283C8.31513 11.0955 8.44496 10.9116 8.60003 10.7096C9.27801 9.82247 10.6664 8.02654 10.8792 7.01318C11.3516 4.75204 9.32489 2.76137 7.13588 3.02824ZM7.18997 5.09824C6.56609 5.24971 5.98548 5.89884 6.20907 6.71385C6.37135 7.30168 7.0313 7.84262 7.82107 7.64788C8.42693 7.49642 8.9823 6.83647 8.77674 6.03948C8.62527 5.44444 7.96893 4.91071 7.18637 5.10185L7.18997 5.09824Z" fill="white"/>
</svg>
